# xmcd
#
# Track frame offsets:
#   150
#   13914
#   27558
#   43892
#   57616
#   75550
#   90109
#   103072
#   117313
#   133935
#   148483
#   160782
#   174706
#   188177
#   203387
#   215417
#   225312
#   235867
#   248739
#   261493
#
# Disc length: 3653 seconds
#
# Revision: 0
# Processed by: cddbd v1.5.2PL0 Copyright (c) Steve Scherf et al.
# Submitted via: uFREEDB ActiveX Control 1.5
#
DISCID=1f0e4314
DTITLE=teodoro e sampaio - as 20 mais
DYEAR=2006
DGENRE=Country
TTITLE0=bão demais da conta
TTITLE1=mulher chorona
TTITLE2=anna julia
TTITLE3=roela do eno
TTITLE4=paixao proibida
TTITLE5=apaixonado.com
TTITLE6=fogo no facho
TTITLE7=se a casa cair
TTITLE8=o tocador
TTITLE9=bate a bota no chão
TTITLE10=brinquinho na orelha
TTITLE11=namorada do carinha
TTITLE12=só tô comendo
TTITLE13=louco por mulher
TTITLE14=garanhão da madrugada
TTITLE15=silicone lá
TTITLE16=vou bebr veneno
TTITLE17=furdunço no piseiro
TTITLE18=mulher carente
TTITLE19=cantaram a minha vizinha
EXTD=aa0105001
EXTT0=
EXTT1=
EXTT2=
EXTT3=
EXTT4=
EXTT5=
EXTT6=
EXTT7=
EXTT8=
EXTT9=
EXTT10=
EXTT11=
EXTT12=
EXTT13=
EXTT14=
EXTT15=
EXTT16=
EXTT17=
EXTT18=
EXTT19=
PLAYORDER=
